<?xml version="1.0" encoding="UTF-8" standalone="no"?>
<!-- Generated by graphviz version 2.43.0 (0)
 -->

<!-- Title: snakemake_dag Pages: 1 -->

<svg
   width="589.60596pt"
   height="423.90741pt"
   viewBox="0 0 589.16856 423.90741"
   version="1.1"
   id="svg85755"
   sodipodi:docname="rulegraph.svg"
   inkscape:version="1.2.2 (b0a8486541, 2022-12-01)"
   xmlns:inkscape="http://www.inkscape.org/namespaces/inkscape"
   xmlns:sodipodi="http://sodipodi.sourceforge.net/DTD/sodipodi-0.dtd"
   xmlns="http://www.w3.org/2000/svg"
   xmlns:svg="http://www.w3.org/2000/svg">
  <defs
     id="defs85759">
    <marker
       style="overflow:visible"
       id="marker86834"
       refX="0"
       refY="0"
       orient="auto-start-reverse"
       inkscape:stockid="Arrow2"
       markerWidth="7.6999998"
       markerHeight="5.5999999"
       viewBox="0 0 7.7 5.6"
       inkscape:isstock="true"
       inkscape:collect="always"
       preserveAspectRatio="xMidYMid">
      <path
         transform="scale(0.7)"
         d="M -2,-4 9,0 -2,4 c 2,-2.33 2,-5.66 0,-8 z"
         style="fill:context-stroke;fill-rule:evenodd;stroke:none"
         id="path86832" />
    </marker>
  </defs>
  <sodipodi:namedview
     id="namedview85757"
     pagecolor="#ffffff"
     bordercolor="#666666"
     borderopacity="1.0"
     inkscape:showpageshadow="2"
     inkscape:pageopacity="0.0"
     inkscape:pagecheckerboard="0"
     inkscape:deskcolor="#d1d1d1"
     inkscape:document-units="pt"
     showgrid="false"
     inkscape:zoom="1.1911765"
     inkscape:cx="279.1358"
     inkscape:cy="306.41975"
     inkscape:window-width="1920"
     inkscape:window-height="1053"
     inkscape:window-x="0"
     inkscape:window-y="27"
     inkscape:window-maximized="1"
     inkscape:current-layer="svg85755" />
  <path
     fill="none"
     stroke="#88d856"
     stroke-width="2.00001"
     d="m 254.48678,65.048835 c 0,0 -171.054956,0 -171.054956,0 -11.155757,0 -22.311517,8.62428 -22.311517,17.24857 0,0 0,17.24856 0,17.24856 0,8.624295 11.15576,17.248575 22.311517,17.248575 0,0 171.054956,0 171.054956,0 11.15576,0 22.31152,-8.62428 22.31152,-17.248575 0,0 0,-17.24856 0,-17.24856 0,-8.62429 -11.15576,-17.24857 -22.31152,-17.24857"
     id="path85525" />
  <path
     fill="none"
     stroke="#78d856"
     stroke-width="2.00001"
     d="m 235.16313,1.000005 c 0,0 -122.67891,0 -122.67891,0 -7.07764,0 -14.155266,6 -14.155266,12 0,0 0,12 0,12 0,6 7.077626,12 14.155266,12 0,0 122.67891,0 122.67891,0 7.07763,0 14.15527,-6 14.15527,-12 0,0 0,-12 0,-12 0,-6 -7.07764,-12 -14.15527,-12"
     id="path85581" />
  <path
     fill="none"
     stroke="#56d0d8"
     stroke-width="2"
     d="m 46.048568,369.90739 c 0,0 -30,0 -30,0 -6,0 -11.9999998,6 -11.9999998,12 0,0 0,12 0,12 0,6 5.9999998,12 11.9999998,12 0,0 30,0 30,0 6,0 12,-6 12,-12 0,0 0,-12 0,-12 0,-6 -6,-12 -12,-12"
     id="path85602"
     style="fill:#f0d6d6;fill-opacity:1;stroke:none;stroke-opacity:1" />
  <path
     fill="none"
     stroke="#d86e56"
     stroke-width="2"
     d="m 396.71497,271.06606 c 0,0 -117.90054,0 -117.90054,0 -7.07404,0 -14.14807,10.94552 -14.14807,21.89103 0,0 0,21.89102 0,21.89102 0,10.94551 7.07403,21.89102 14.14807,21.89102 0,0 117.90054,0 117.90054,0 7.07403,0 14.14806,-10.94551 14.14806,-21.89102 0,0 0,-21.89102 0,-21.89102 0,-10.94551 -7.07403,-21.89103 -14.14806,-21.89103"
     id="path85623" />
  <path
     fill="none"
     stroke="#d87d56"
     stroke-width="1.99998"
     d="m 183.47612,156.17688 c 0,0 -111.400913,0 -111.400913,0 -11.52424,0 -23.04847,7.11626 -23.04847,14.2325 0,0 0,14.23252 0,14.23252 0,7.11626 11.52423,14.2325 23.04847,14.2325 0,0 111.400913,0 111.400913,0 11.52425,0 23.04847,-7.11624 23.04847,-14.2325 0,0 0,-14.23252 0,-14.23252 0,-7.11624 -11.52422,-14.2325 -23.04847,-14.2325"
     id="path85637"
     style="stroke:#5664d8;stroke-opacity:1" />
  <path
     fill="none"
     stroke="#9fd856"
     stroke-width="1.99999"
     d="m 95.704194,246.40723 c 0,0 -68.455346,0 -68.455346,0 -13.24943,0 -26.49884983,5.72982 -26.49884983,11.45966 0,0 0,11.45966 0,11.45966 0,5.72984 13.24941983,11.45966 26.49884983,11.45966 0,0 68.455346,0 68.455346,0 13.249406,0 26.498836,-5.72982 26.498836,-11.45966 0,0 0,-11.45966 0,-11.45966 0,-5.72984 -13.24943,-11.45966 -26.498836,-11.45966"
     id="path85693"
     style="stroke:#b256d8;stroke-opacity:1" />
  <text
     text-anchor="middle"
     x="-188.63092"
     y="269.03012"
     font-family="sans"
     font-size="10px"
     id="text85845"><tspan
       sodipodi:role="line"
       x="-188.63092"
       y="269.03012"
       id="tspan85853" /></text>
  <text
     xml:space="preserve"
     style="font-style:normal;font-weight:normal;font-size:11px;line-height:1.05;font-family:sans-serif;fill:#000000;fill-opacity:1;stroke:none;stroke-width:0.75"
     x="168.75949"
     y="78.812759"
     id="text85857"
     inkscape:transform-center-x="3.5643017"><tspan
       sodipodi:role="line"
       style="font-style:italic;font-variant:normal;font-weight:normal;font-stretch:normal;font-size:11px;font-family:'Open Sans';-inkscape-font-specification:'Open Sans Italic';text-align:center;text-anchor:middle;stroke-width:0.75"
       x="168.75949"
       y="78.812759"
       id="tspan85859"><tspan
   id="tspan86045"
   style="font-style:normal;font-variant:normal;font-weight:normal;font-stretch:normal;font-size:11px;font-family:'Open Sans';-inkscape-font-specification:'Open Sans';text-align:center;text-anchor:middle;stroke-width:0.75">trim primers </tspan>(cutadapt)</tspan><tspan
       sodipodi:role="line"
       style="font-style:normal;font-variant:normal;font-weight:normal;font-stretch:normal;font-size:9px;font-family:'Open Sans';-inkscape-font-specification:'Open Sans';text-align:center;text-anchor:middle;stroke-width:0.75"
       x="168.75949"
       y="90.362762"
       id="tspan85931">and remove short sequences</tspan><tspan
       sodipodi:role="line"
       style="font-style:normal;font-variant:normal;font-weight:normal;font-stretch:normal;font-size:11px;font-family:'Open Sans';-inkscape-font-specification:'Open Sans';text-align:center;text-anchor:middle;stroke-width:0.75"
       x="168.75949"
       y="101.92687"
       id="tspan85933">→ separate by primer combination</tspan></text>
  <text
     xml:space="preserve"
     style="font-style:normal;font-weight:normal;font-size:11px;line-height:1.25;font-family:sans-serif;fill:#000000;fill-opacity:1;stroke:none;stroke-width:0.75"
     x="110.37613"
     y="21.611103"
     id="text85865"
     inkscape:transform-center-x="3.5643017"><tspan
       sodipodi:role="line"
       id="tspan85861"
       style="font-style:normal;font-variant:normal;font-weight:normal;font-stretch:normal;font-size:11px;font-family:'Open Sans';-inkscape-font-specification:'Open Sans';stroke-width:0.75"
       x="110.37613"
       y="21.611103">merge paired-end reads</tspan><tspan
       sodipodi:role="line"
       style="font-style:normal;font-variant:normal;font-weight:normal;font-stretch:normal;font-size:11px;font-family:'Open Sans';-inkscape-font-specification:'Open Sans';stroke-width:0.75"
       x="110.37613"
       y="35.361103"
       id="tspan85863" /></text>
  <text
     xml:space="preserve"
     style="font-style:normal;font-weight:normal;font-size:11px;line-height:1.05;font-family:sans-serif;fill:#000000;fill-opacity:1;stroke:none;stroke-width:0.75"
     x="129.61127"
     y="172.27165"
     id="text85927"
     inkscape:transform-center-x="3.5643017"><tspan
       sodipodi:role="line"
       style="font-style:normal;font-variant:normal;font-weight:normal;font-stretch:normal;font-size:11px;font-family:'Open Sans';-inkscape-font-specification:'Open Sans';text-align:center;text-anchor:middle;stroke-width:0.75"
       x="129.61127"
       y="172.27165"
       id="tspan85925">filter sequences</tspan><tspan
       sodipodi:role="line"
       style="font-style:normal;font-variant:normal;font-weight:normal;font-stretch:normal;font-size:9px;font-family:'Open Sans';-inkscape-font-specification:'Open Sans';text-align:center;text-anchor:middle;stroke-width:0.75"
       x="129.61127"
       y="183.82166"
       id="tspan86999">retain only those with good quality</tspan></text>
  <path
     fill="none"
     stroke="#808080"
     stroke-width="2"
     d="m 118.51998,199.60748 c -1.56541,27.32909 -46.689203,13.57946 -53.104943,35.74955"
     id="path86965"
     sodipodi:nodetypes="cc"
     style="stroke-width:1.5;stroke-dasharray:none;marker-end:url(#marker86834)" />
  <text
     xml:space="preserve"
     style="font-style:normal;font-weight:normal;font-size:11px;line-height:1.05;font-family:sans-serif;fill:#000000;fill-opacity:1;stroke:none;stroke-width:0.75"
     x="64.125702"
     y="262.57184"
     id="text87072"
     inkscape:transform-center-x="3.5643017"><tspan
       sodipodi:role="line"
       style="font-style:normal;font-variant:normal;font-weight:normal;font-stretch:normal;font-size:11px;font-family:'Open Sans';-inkscape-font-specification:'Open Sans';text-align:center;text-anchor:middle;stroke-width:0.75"
       x="64.125702"
       y="262.57184"
       id="tspan87076">UNOISE3 </tspan><tspan
       sodipodi:role="line"
       style="font-style:normal;font-variant:normal;font-weight:normal;font-stretch:normal;font-size:11px;font-family:'Open Sans';-inkscape-font-specification:'Open Sans';text-align:center;text-anchor:middle;stroke-width:0.75"
       x="64.125702"
       y="274.13596"
       id="tspan87226">denoising</tspan></text>
  <path
     fill="none"
     stroke="#9fd856"
     stroke-width="1.99999"
     d="m 230.70419,246.40723 c 0,0 -68.45535,0 -68.45535,0 -13.24943,0 -26.49885,5.72982 -26.49885,11.45966 0,0 0,11.45966 0,11.45966 0,5.72984 13.24942,11.45966 26.49885,11.45966 0,0 68.45535,0 68.45535,0 13.24941,0 26.49884,-5.72982 26.49884,-11.45966 0,0 0,-11.45966 0,-11.45966 0,-5.72984 -13.24943,-11.45966 -26.49884,-11.45966"
     id="path87145"
     style="stroke:#b256d8;stroke-opacity:1" />
  <text
     xml:space="preserve"
     style="font-style:normal;font-weight:normal;font-size:11px;line-height:1.05;font-family:sans-serif;fill:#000000;fill-opacity:1;stroke:none;stroke-width:0.75"
     x="199.1257"
     y="262.57184"
     id="text87149"
     inkscape:transform-center-x="3.5643017"><tspan
       sodipodi:role="line"
       style="font-style:normal;font-variant:normal;font-weight:normal;font-stretch:normal;font-size:11px;font-family:'Open Sans';-inkscape-font-specification:'Open Sans';text-align:center;text-anchor:middle;stroke-width:0.75"
       x="199.1257"
       y="262.57184"
       id="tspan87147">UPARSE clustering</tspan><tspan
       sodipodi:role="line"
       style="font-style:normal;font-variant:normal;font-weight:normal;font-stretch:normal;font-size:11px;font-family:'Open Sans';-inkscape-font-specification:'Open Sans';text-align:center;text-anchor:middle;stroke-width:0.75"
       x="199.1257"
       y="274.13596"
       id="tspan87224">(97 %)</tspan></text>
  <text
     xml:space="preserve"
     style="font-style:normal;font-weight:normal;font-size:11px;line-height:0;font-family:sans-serif;fill:#000000;fill-opacity:1;stroke:none;stroke-width:0.75"
     x="338.62567"
     y="288.07184"
     id="text87218"
     inkscape:transform-center-x="3.5643017"><tspan
       sodipodi:role="line"
       style="font-style:normal;font-variant:normal;font-weight:normal;font-stretch:normal;font-size:11px;line-height:1.05;font-family:'Open Sans';-inkscape-font-specification:'Open Sans';text-align:center;text-anchor:middle;stroke-width:0.75"
       x="338.62567"
       y="288.07184"
       id="tspan87216">get count table</tspan><tspan
       sodipodi:role="line"
       style="font-style:normal;font-variant:normal;font-weight:normal;font-stretch:normal;font-size:11px;line-height:1.05;font-family:'Open Sans';-inkscape-font-specification:'Open Sans';text-align:center;text-anchor:middle;stroke-width:0.75"
       x="338.62567"
       y="299.62183"
       id="tspan87360">(OTU table)</tspan><tspan
       sodipodi:role="line"
       style="font-style:normal;font-variant:normal;font-weight:normal;font-stretch:normal;font-size:9px;line-height:1.05;font-family:'Open Sans';-inkscape-font-specification:'Open Sans';text-align:center;text-anchor:middle;stroke-width:0.75"
       x="338.62567"
       y="309.59973"
       id="tspan87366">comparing unfiltered sequences </tspan><tspan
       sodipodi:role="line"
       style="font-style:normal;font-variant:normal;font-weight:normal;font-stretch:normal;font-size:9px;line-height:1.05;font-family:'Open Sans';-inkscape-font-specification:'Open Sans';text-align:center;text-anchor:middle;stroke-width:0.75"
       x="338.62567"
       y="319.04974"
       id="tspan87368">to clusters at 97 % threshold</tspan><tspan
       sodipodi:role="line"
       style="font-style:normal;font-variant:normal;font-weight:normal;font-stretch:normal;font-size:9px;line-height:1.05;font-family:'Open Sans';-inkscape-font-specification:'Open Sans';text-align:center;text-anchor:middle;stroke-width:0.75"
       x="338.62567"
       y="328.49973"
       id="tspan87370">(default)</tspan></text>
  <path
     fill="none"
     stroke="#808080"
     stroke-width="2"
     d="m 141.25478,198.87778 c -1.56541,27.32909 60.2823,11.5196 61.6575,37.1206"
     id="path87442"
     sodipodi:nodetypes="cc"
     style="stroke-width:1.5;stroke-dasharray:none;marker-end:url(#marker86834)" />
  <path
     fill="none"
     stroke="#808080"
     stroke-width="2"
     d="m 141.25478,198.87778 c -1.56541,27.32909 60.2823,11.5196 61.6575,37.1206"
     id="path87454"
     sodipodi:nodetypes="cc"
     style="stroke-width:1.5;stroke-dasharray:none;marker-end:url(#marker86834)" />
  <path
     fill="none"
     stroke="#808080"
     stroke-width="2"
     d="m 205.4896,282.26865 c -1.56541,27.32909 24.73167,22.86815 48.7926,22.26486"
     id="path87458"
     sodipodi:nodetypes="cc"
     style="stroke-width:1.5;stroke-dasharray:none;marker-end:url(#marker86834)" />
  <path
     fill="none"
     stroke="#808080"
     stroke-width="2"
     d="m 214.20831,117.52373 c -1.56541,27.32909 120.73846,117.53043 122.11366,143.13143"
     id="path87504"
     sodipodi:nodetypes="cc"
     style="stroke-width:1.5;stroke-dasharray:none;marker-end:url(#marker86834)" />
  <path
     fill="none"
     stroke="#808080"
     stroke-width="2"
     d="m 141.25478,198.87778 c -1.56541,27.32909 60.2823,11.5196 61.6575,37.1206"
     id="path87516"
     sodipodi:nodetypes="cc"
     style="stroke-width:1.5;stroke-dasharray:none;marker-end:url(#marker86834)" />
  <path
     fill="none"
     stroke="#808080"
     stroke-width="2"
     d="m 138.16605,120.36888 -5.53629,24.00848"
     id="path87520"
     sodipodi:nodetypes="cc"
     style="stroke-width:1.5;stroke-dasharray:none;marker-end:url(#marker86834)" />
  <path
     fill="none"
     stroke="#808080"
     stroke-width="2"
     d="m 164.36423,38.176205 0.26794,14.17254"
     id="path87538"
     sodipodi:nodetypes="cc"
     style="stroke-width:1.5;stroke-dasharray:none;marker-end:url(#marker86834)" />
  <text
     xml:space="preserve"
     style="font-style:normal;font-weight:normal;font-size:11px;line-height:1.05;font-family:sans-serif;fill:#000000;fill-opacity:1;stroke:none;stroke-width:0.75"
     x="29.426241"
     y="386.54169"
     id="text87715"
     inkscape:transform-center-x="3.5643017"><tspan
       sodipodi:role="line"
       style="font-style:normal;font-variant:normal;font-weight:normal;font-stretch:normal;font-size:11px;font-family:'Open Sans';-inkscape-font-specification:'Open Sans';text-align:center;text-anchor:middle;stroke-width:0.75"
       x="29.426241"
       y="386.54169"
       id="tspan87713">unoise3</tspan><tspan
       sodipodi:role="line"
       style="font-style:normal;font-variant:normal;font-weight:normal;font-stretch:normal;font-size:11px;font-family:'Open Sans';-inkscape-font-specification:'Open Sans';text-align:center;text-anchor:middle;stroke-width:0.75"
       x="29.426241"
       y="398.1058"
       id="tspan87725">rule</tspan></text>
  <path
     fill="none"
     stroke="#808080"
     stroke-width="2"
     d="m 59.453738,284.85969 c -1.56541,27.32909 -26.698321,50.32924 -26.226991,71.93934"
     id="path87862"
     sodipodi:nodetypes="cc"
     style="fill:none;fill-opacity:1;stroke:#e1a287;stroke-width:1.5;stroke-dasharray:1.5, 1.5;stroke-dashoffset:0;stroke-opacity:1;marker-end:url(#marker86834)" />
  <path
     fill="none"
     stroke="#56d0d8"
     stroke-width="2"
     d="m 241.04856,362.40739 c 0,0 -30,0 -30,0 -6,0 -12,6 -12,12 0,0 0,12 0,12 0,6 6,12 12,12 0,0 30,0 30,0 6,0 12,-6 12,-12 0,0 0,-12 0,-12 0,-6 -6,-12 -12,-12"
     id="path88238"
     style="fill:#f0d6d6;fill-opacity:1;stroke:none;stroke-opacity:1" />
  <text
     xml:space="preserve"
     style="font-style:normal;font-weight:normal;font-size:11px;line-height:1.05;font-family:sans-serif;fill:#000000;fill-opacity:1;stroke:none;stroke-width:0.75"
     x="224.42624"
     y="379.04169"
     id="text88244"
     inkscape:transform-center-x="3.5643017"><tspan
       sodipodi:role="line"
       style="font-style:normal;font-variant:normal;font-weight:normal;font-stretch:normal;font-size:11px;font-family:'Open Sans';-inkscape-font-specification:'Open Sans';text-align:center;text-anchor:middle;stroke-width:0.75"
       x="224.42624"
       y="379.04169"
       id="tspan88240">uparse</tspan><tspan
       sodipodi:role="line"
       style="font-style:normal;font-variant:normal;font-weight:normal;font-stretch:normal;font-size:11px;font-family:'Open Sans';-inkscape-font-specification:'Open Sans';text-align:center;text-anchor:middle;stroke-width:0.75"
       x="224.42624"
       y="390.6058"
       id="tspan88242">rule</tspan></text>
  <path
     fill="none"
     stroke="#808080"
     stroke-width="2"
     d="m 194.45373,284.85969 c 7.90494,28.58835 29.42623,44.3551 33.9724,67.85408"
     id="path88246"
     sodipodi:nodetypes="cc"
     style="fill:none;fill-opacity:1;stroke:#e1a287;stroke-width:1.5;stroke-dasharray:1.5, 1.5;stroke-dashoffset:0;stroke-opacity:1;marker-end:url(#marker86834)" />
  <path
     fill="none"
     stroke="#9fd856"
     stroke-width="1.99999"
     d="m 164.70419,307.90723 c 0,0 -68.455346,0 -68.455346,0 -13.24943,0 -26.498847,5.72982 -26.498847,11.45966 0,0 0,11.45966 0,11.45966 0,5.72984 13.249417,11.45966 26.498847,11.45966 0,0 68.455346,0 68.455346,0 13.24941,0 26.49884,-5.72982 26.49884,-11.45966 0,0 0,-11.45966 0,-11.45966 0,-5.72984 -13.24943,-11.45966 -26.49884,-11.45966"
     id="path88343"
     style="stroke:#d8bc56;stroke-opacity:1" />
  <text
     xml:space="preserve"
     style="font-style:normal;font-weight:normal;font-size:11px;line-height:1.05;font-family:sans-serif;fill:#000000;fill-opacity:1;stroke:none;stroke-width:0.75"
     x="133.1257"
     y="322.57184"
     id="text88349"
     inkscape:transform-center-x="3.5643017"><tspan
       sodipodi:role="line"
       style="font-style:normal;font-variant:normal;font-weight:normal;font-stretch:normal;font-size:11px;font-family:'Open Sans';-inkscape-font-specification:'Open Sans';text-align:center;text-anchor:middle;stroke-width:0.75"
       x="133.1257"
       y="322.57184"
       id="tspan88345">SINTAX taxonomy</tspan><tspan
       sodipodi:role="line"
       style="font-style:normal;font-variant:normal;font-weight:normal;font-stretch:normal;font-size:11px;font-family:'Open Sans';-inkscape-font-specification:'Open Sans';text-align:center;text-anchor:middle;stroke-width:0.75"
       x="133.1257"
       y="334.13596"
       id="tspan88347">assignment</tspan></text>
  <path
     fill="none"
     stroke="#808080"
     stroke-width="2"
     d="m 84.360274,281.13349 c 6.00525,14.42007 4.47492,12.95079 15.44628,19.57017"
     id="path88436"
     sodipodi:nodetypes="cc"
     style="stroke-width:1.5;stroke-dasharray:none;marker-end:url(#marker86834)" />
  <path
     fill="none"
     stroke="#808080"
     stroke-width="2"
     d="m 181.3553,279.53202 c 6.00525,14.42007 -19.54635,12.75891 -34.78974,20.71018"
     id="path88458"
     sodipodi:nodetypes="cc"
     style="stroke-width:1.5;stroke-dasharray:none;marker-end:url(#marker86834)" />
  <path
     fill="none"
     stroke="#56d0d8"
     stroke-width="2"
     d="m 166.04856,387.90739 c 0,0 -30,0 -30,0 -6,0 -12,6 -12,12 0,0 0,12 0,12 0,6 6,12 12,12 0,0 30,0 30,0 6,0 12,-6 12,-12 0,0 0,-12 0,-12 0,-6 -6,-12 -12,-12"
     id="path88642"
     style="fill:#f0d6d6;fill-opacity:1;stroke:none;stroke-opacity:1" />
  <text
     xml:space="preserve"
     style="font-style:normal;font-weight:normal;font-size:11px;line-height:1.05;font-family:sans-serif;fill:#000000;fill-opacity:1;stroke:none;stroke-width:0.75"
     x="149.42624"
     y="404.54169"
     id="text88648"
     inkscape:transform-center-x="3.5643017"><tspan
       sodipodi:role="line"
       style="font-style:normal;font-variant:normal;font-weight:normal;font-stretch:normal;font-size:11px;font-family:'Open Sans';-inkscape-font-specification:'Open Sans';text-align:center;text-anchor:middle;stroke-width:0.75"
       x="149.42624"
       y="404.54169"
       id="tspan88644">sintax</tspan><tspan
       sodipodi:role="line"
       style="font-style:normal;font-variant:normal;font-weight:normal;font-stretch:normal;font-size:11px;font-family:'Open Sans';-inkscape-font-specification:'Open Sans';text-align:center;text-anchor:middle;stroke-width:0.75"
       x="149.42624"
       y="416.1058"
       id="tspan88646">rule</tspan></text>
  <path
     fill="none"
     stroke="#808080"
     stroke-width="2"
     d="m 142.77927,343.44153 c -1.56541,27.32909 3.28783,14.9728 8.26014,34.85864"
     id="path88662"
     sodipodi:nodetypes="cc"
     style="fill:none;fill-opacity:1;stroke:#e1a287;stroke-width:1.5;stroke-dasharray:1.5, 1.5;stroke-dashoffset:0;stroke-opacity:1;marker-end:url(#marker86834)" />
  <path
     fill="none"
     stroke="#808080"
     stroke-width="2"
     d="m 332.75658,336.39409 c -31.97378,19.45853 -79.91996,-4.09041 -90.2285,15.28938"
     id="path88834"
     sodipodi:nodetypes="cc"
     style="fill:none;fill-opacity:1;stroke:#e1a287;stroke-width:1.5;stroke-dasharray:1.5, 1.5;stroke-dashoffset:0;stroke-opacity:1;marker-end:url(#marker86834)" />
  <path
     fill="none"
     stroke="#808080"
     stroke-width="2"
     d="M 257.75658,321.39409 C 225.7828,340.85262 91.810754,365.30294 69.089127,374.04955"
     id="path88848"
     sodipodi:nodetypes="cc"
     style="fill:none;fill-opacity:1;stroke:#e1a287;stroke-width:1.5;stroke-dasharray:1.5, 1.5;stroke-dashoffset:0;stroke-opacity:1;marker-end:url(#marker86834)" />
  <text
     xml:space="preserve"
     style="font-style:normal;font-weight:normal;font-size:11px;line-height:1.25;font-family:sans-serif;fill:#000000;fill-opacity:1;stroke:none;stroke-width:0.75"
     x="346.72165"
     y="94.966469"
     id="text89028"><tspan
       sodipodi:role="line"
       style="font-style:normal;font-variant:normal;font-weight:normal;font-stretch:normal;font-size:11px;font-family:'Open Sans';-inkscape-font-specification:'Open Sans';stroke-width:0.75"
       x="346.72165"
       y="94.966469"
       id="tspan89036">runs FastQC+MultiQC</tspan><tspan
       sodipodi:role="line"
       style="font-style:normal;font-variant:normal;font-weight:normal;font-stretch:normal;font-size:11px;font-family:'Open Sans';-inkscape-font-specification:'Open Sans';stroke-width:0.75"
       x="346.72165"
       y="108.73058"
       id="tspan89636">→ <tspan
   style="font-style:italic;font-variant:normal;font-weight:normal;font-stretch:normal;font-family:'Open Sans';-inkscape-font-specification:'Open Sans Italic'"
   id="tspan90376">qc</tspan> directory</tspan></text>
  <path
     fill="none"
     stroke="#56d0d8"
     stroke-width="2"
     d="m 527.96274,51.868179 c 0,0 -30,0 -30,0 -6,0 -12,4.37076 -12,8.74151 0,0 0,8.74151 0,8.74151 0,4.37075 6,8.74151 12,8.74151 0,0 30,0 30,0 6,0 12,-4.37076 12,-8.74151 0,0 0,-8.74151 0,-8.74151 0,-4.37075 -6,-8.74151 -12,-8.74151"
     id="path89038"
     style="fill:#f0d6d6;fill-opacity:1;stroke:none;stroke-opacity:1" />
  <text
     xml:space="preserve"
     style="font-style:normal;font-weight:normal;font-size:11px;line-height:1.05;font-family:sans-serif;fill:#000000;fill-opacity:1;stroke:none;stroke-width:0.75"
     x="511.34039"
     y="68.502449"
     id="text89044"
     inkscape:transform-center-x="3.5643017"><tspan
       sodipodi:role="line"
       style="font-style:normal;font-variant:normal;font-weight:normal;font-stretch:normal;font-size:11px;font-family:'Open Sans';-inkscape-font-specification:'Open Sans';text-align:center;text-anchor:middle;stroke-width:0.75"
       x="511.34039"
       y="68.502449"
       id="tspan89042">config</tspan></text>
  <path
     fill="none"
     stroke="#56d0d8"
     stroke-width="2"
     d="m 389.35488,55.016609 c 0,0 -30,0 -30,0 -6,0 -12,4.37076 -12,8.741514 0,0 0,8.74151 0,8.74151 0,4.37075 6,8.74151 12,8.74151 0,0 30,0 30,0 6,0 12,-4.37076 12,-8.74151 0,0 0,-8.74151 0,-8.74151 0,-4.370754 -6,-8.741514 -12,-8.741514"
     id="path89444"
     style="fill:#f0d6d6;fill-opacity:1;stroke:none;stroke-opacity:1" />
  <text
     xml:space="preserve"
     style="font-style:normal;font-weight:normal;font-size:11px;line-height:1.05;font-family:sans-serif;fill:#000000;fill-opacity:1;stroke:none;stroke-width:0.75"
     x="372.73254"
     y="71.650894"
     id="text89448"
     inkscape:transform-center-x="3.5643017"><tspan
       sodipodi:role="line"
       style="font-style:normal;font-variant:normal;font-weight:normal;font-stretch:normal;font-size:11px;font-family:'Open Sans';-inkscape-font-specification:'Open Sans';text-align:center;text-anchor:middle;stroke-width:0.75"
       x="372.73254"
       y="71.650894"
       id="tspan89446">quality</tspan></text>
  <text
     xml:space="preserve"
     style="font-style:normal;font-weight:normal;font-size:11px;line-height:1.05;font-family:sans-serif;fill:#000000;fill-opacity:1;stroke:none;stroke-width:0.75"
     x="468.22165"
     y="94.966469"
     id="text90467"><tspan
       sodipodi:role="line"
       style="font-style:normal;font-variant:normal;font-weight:normal;font-stretch:normal;font-size:11px;font-family:'Open Sans';-inkscape-font-specification:'Open Sans';stroke-width:0.75"
       x="468.22165"
       y="94.966469"
       id="tspan90465">writes the configuration</tspan><tspan
       sodipodi:role="line"
       style="font-style:normal;font-variant:normal;font-weight:normal;font-stretch:normal;font-size:9px;font-family:'Open Sans';-inkscape-font-specification:'Open Sans';stroke-width:0.75"
       x="468.22165"
       y="106.51647"
       id="tspan90477">(including input files </tspan><tspan
       sodipodi:role="line"
       style="font-style:normal;font-variant:normal;font-weight:normal;font-stretch:normal;font-size:9px;font-family:'Open Sans';-inkscape-font-specification:'Open Sans';stroke-width:0.75"
       x="468.22165"
       y="118.06647"
       id="tspan90479">and defaults)</tspan><tspan
       sodipodi:role="line"
       style="font-style:normal;font-variant:normal;font-weight:normal;font-stretch:normal;font-size:11px;font-family:'Open Sans';-inkscape-font-specification:'Open Sans';stroke-width:0.75"
       x="468.22165"
       y="129.63058"
       id="tspan90483">→ <tspan
   style="font-style:italic;font-variant:normal;font-weight:normal;font-stretch:normal;font-family:'Open Sans';-inkscape-font-specification:'Open Sans Italic'"
   id="tspan90485">results/config.yaml</tspan></tspan><tspan
       sodipodi:role="line"
       style="font-style:italic;font-variant:normal;font-weight:normal;font-stretch:normal;font-size:11px;font-family:'Open Sans';-inkscape-font-specification:'Open Sans Italic';stroke-width:0.75"
       x="468.22165"
       y="141.18059"
       id="tspan90481" /></text>
  <path
     fill="none"
     stroke="#56d0d8"
     stroke-width="2"
     d="m 402.65631,156.34526 c 0,0 -30,0 -30,0 -6,0 -12,4.37076 -12,8.74151 0,0 0,8.74151 0,8.74151 0,4.37075 6,8.74151 12,8.74151 0,0 30,0 30,0 6,0 12,-4.37076 12,-8.74151 0,0 0,-8.74151 0,-8.74151 0,-4.37075 -6,-8.74151 -12,-8.74151"
     id="path90667"
     style="fill:#f0d6d6;fill-opacity:1;stroke:none;stroke-opacity:1" />
  <text
     xml:space="preserve"
     style="font-style:normal;font-weight:normal;font-size:11px;line-height:1.05;font-family:sans-serif;fill:#000000;fill-opacity:1;stroke:none;stroke-width:0.75"
     x="386.03397"
     y="172.97952"
     id="text90671"
     inkscape:transform-center-x="3.5643017"><tspan
       sodipodi:role="line"
       style="font-style:normal;font-variant:normal;font-weight:normal;font-stretch:normal;font-size:11px;font-family:'Open Sans';-inkscape-font-specification:'Open Sans';text-align:center;text-anchor:middle;stroke-width:0.75"
       x="386.03397"
       y="172.97952"
       id="tspan90669">clean</tspan></text>
  <text
     xml:space="preserve"
     style="font-style:normal;font-weight:normal;font-size:11px;line-height:1.05;font-family:sans-serif;fill:#000000;fill-opacity:1;stroke:none;stroke-width:0.75"
     x="391.58929"
     y="199.44354"
     id="text90703"><tspan
       sodipodi:role="line"
       style="font-style:normal;font-variant:normal;font-weight:normal;font-stretch:normal;font-size:11px;font-family:'Open Sans';-inkscape-font-specification:'Open Sans';text-align:center;text-anchor:middle;stroke-width:0.75"
       x="391.58929"
       y="199.44354"
       id="tspan90717">removes </tspan><tspan
       sodipodi:role="line"
       style="font-style:italic;font-variant:normal;font-weight:normal;font-stretch:normal;font-size:11px;font-family:'Open Sans';-inkscape-font-specification:'Open Sans Italic';text-align:center;text-anchor:middle;stroke-width:0.75"
       x="391.58929"
       y="211.00766"
       id="tspan90721">workdir + logs</tspan></text>
  <path
     fill="none"
     stroke="#56d0d8"
     stroke-width="2"
     d="m 477.65631,156.34526 c 0,0 -30,0 -30,0 -6,0 -12,4.37076 -12,8.74151 0,0 0,8.74151 0,8.74151 0,4.37075 6,8.74151 12,8.74151 0,0 30,0 30,0 6,0 12,-4.37076 12,-8.74151 0,0 0,-8.74151 0,-8.74151 0,-4.37075 -6,-8.74151 -12,-8.74151"
     id="path90723"
     style="fill:#f0d6d6;fill-opacity:1;stroke:none;stroke-opacity:1" />
  <text
     xml:space="preserve"
     style="font-style:normal;font-weight:normal;font-size:11px;line-height:1.05;font-family:sans-serif;fill:#000000;fill-opacity:1;stroke:none;stroke-width:0.75"
     x="461.03397"
     y="172.97952"
     id="text90727"
     inkscape:transform-center-x="3.5643017"><tspan
       sodipodi:role="line"
       style="font-style:normal;font-variant:normal;font-weight:normal;font-stretch:normal;font-size:11px;font-family:'Open Sans';-inkscape-font-specification:'Open Sans';text-align:center;text-anchor:middle;stroke-width:0.75"
       x="461.03397"
       y="172.97952"
       id="tspan90725">clean_qc</tspan></text>
  <text
     xml:space="preserve"
     style="font-style:normal;font-weight:normal;font-size:11px;line-height:1.05;font-family:sans-serif;fill:#000000;fill-opacity:1;stroke:none;stroke-width:0.75"
     x="466.58929"
     y="199.44354"
     id="text90733"><tspan
       sodipodi:role="line"
       style="font-style:normal;font-variant:normal;font-weight:normal;font-stretch:normal;font-size:11px;font-family:'Open Sans';-inkscape-font-specification:'Open Sans';text-align:center;text-anchor:middle;stroke-width:0.75"
       x="466.58929"
       y="199.44354"
       id="tspan90729">removes </tspan><tspan
       sodipodi:role="line"
       style="font-style:italic;font-variant:normal;font-weight:normal;font-stretch:normal;font-size:11px;font-family:'Open Sans';-inkscape-font-specification:'Open Sans Italic';text-align:center;text-anchor:middle;stroke-width:0.75"
       x="466.58929"
       y="211.00766"
       id="tspan90731">qc</tspan></text>
  <path
     fill="none"
     stroke="#56d0d8"
     stroke-width="2"
     d="m 552.65631,156.34526 c 0,0 -30,0 -30,0 -6,0 -12,4.37076 -12,8.74151 0,0 0,8.74151 0,8.74151 0,4.37075 6,8.74151 12,8.74151 0,0 30,0 30,0 6,0 12,-4.37076 12,-8.74151 0,0 0,-8.74151 0,-8.74151 0,-4.37075 -6,-8.74151 -12,-8.74151"
     id="path90741"
     style="fill:#f0d6d6;fill-opacity:1;stroke:none;stroke-opacity:1" />
  <text
     xml:space="preserve"
     style="font-style:normal;font-weight:normal;font-size:11px;line-height:1.05;font-family:sans-serif;fill:#000000;fill-opacity:1;stroke:none;stroke-width:0.75"
     x="536.03394"
     y="172.97952"
     id="text90745"
     inkscape:transform-center-x="3.5643017"><tspan
       sodipodi:role="line"
       style="font-style:normal;font-variant:normal;font-weight:normal;font-stretch:normal;font-size:11px;font-family:'Open Sans';-inkscape-font-specification:'Open Sans';text-align:center;text-anchor:middle;stroke-width:0.75"
       x="536.03394"
       y="172.97952"
       id="tspan90743">clean_all</tspan></text>
  <text
     xml:space="preserve"
     style="font-style:normal;font-weight:normal;font-size:11px;line-height:1.05;font-family:sans-serif;fill:#000000;fill-opacity:1;stroke:none;stroke-width:0.75"
     x="541.58923"
     y="199.44354"
     id="text90751"><tspan
       sodipodi:role="line"
       style="font-style:normal;font-variant:normal;font-weight:normal;font-stretch:normal;font-size:11px;font-family:'Open Sans';-inkscape-font-specification:'Open Sans';text-align:center;text-anchor:middle;stroke-width:0.75"
       x="541.58923"
       y="199.44354"
       id="tspan90747">removes </tspan><tspan
       sodipodi:role="line"
       style="font-style:italic;font-variant:normal;font-weight:600;font-stretch:normal;font-size:11px;font-family:'Open Sans';-inkscape-font-specification:'Open Sans Semi-Bold Italic';text-align:center;text-anchor:middle;stroke-width:0.75"
       x="541.58923"
       y="211.00766"
       id="tspan90749">all data</tspan></text>
  <text
     xml:space="preserve"
     style="font-style:normal;font-weight:normal;font-size:11px;line-height:1.25;font-family:sans-serif;fill:#000000;fill-opacity:1;stroke:none;stroke-width:0.75"
     x="361.72165"
     y="28.966473"
     id="text91083"><tspan
       sodipodi:role="line"
       style="font-style:normal;font-variant:normal;font-weight:bold;font-stretch:normal;font-size:11px;font-family:'Open Sans';-inkscape-font-specification:'Open Sans Bold';stroke-width:0.75"
       x="361.72165"
       y="28.966473"
       id="tspan91081">Other target rules (&quot;commands&quot;)</tspan></text>
</svg>
